<svg width="20" height="20" viewBox="0 0 20 20" fill="none" xmlns="http://www.w3.org/2000/svg">
<path d="M6.66595 1.24991C6.66595 0.558552 7.16259 0 7.7773 0H12.2227C12.8374 0 13.334 0.558552 13.334 1.24991C13.334 1.94021 13.8937 2.49981 14.584 2.49981H15.0011C15.9214 2.49981 16.6681 3.33959 16.6681 4.37467V7.72751C16.6681 8.71805 17.2826 9.60467 18.2101 9.95238C19.0124 10.2531 19.2346 11.4171 18.6095 12.0577L15.4907 15.2736C15.2322 15.5401 14.9504 15.7888 14.6146 15.947C14.1861 16.1489 13.7393 16.2644 13.334 16.2644C12.6533 16.2644 11.9171 15.9637 11.2781 15.4715C10.5105 14.8661 9.486 14.8661 8.71848 15.4715C8.1246 15.9324 7.39875 16.2644 6.66248 16.2644C6.25719 16.2644 5.81045 16.1489 5.38197 15.947C5.04611 15.7888 4.7643 15.5401 4.50582 15.2736L1.38704 12.0577C0.761908 11.4132 0.984178 10.2531 1.78643 9.95238C2.7159 9.60472 3.3319 8.71661 3.3319 7.72425V4.37467C3.3319 3.33959 4.07859 2.49981 4.99893 2.49981H5.41604C6.10635 2.49981 6.66595 1.94021 6.66595 1.24991ZM5.5546 6.45014C5.5546 7.46265 6.56569 8.16363 7.51388 7.8085L9.29846 7.14009C9.75342 6.96823 10.2466 6.96823 10.705 7.14009L12.4861 7.8078C13.4342 8.16322 14.4454 7.46236 14.4454 6.44986C14.4454 5.64892 13.7961 4.99963 12.9952 4.99963H7.00511C6.20402 4.99963 5.5546 5.64904 5.5546 6.45014ZM10.6425 16.4792C11.4239 17.0847 12.379 17.4987 13.334 17.4987C14.2683 17.4987 15.2581 17.0768 16.0221 16.4792C16.4354 16.1472 16.998 16.1746 17.3835 16.5456C17.8836 17.0104 18.5122 17.3659 19.1409 17.5299C19.7382 17.6862 20.1098 18.358 19.9709 19.0298C19.832 19.7017 19.2346 20.1196 18.6373 19.9634C17.3129 19.6168 15.8759 19.5449 14.5426 19.8553C14.145 19.9479 13.7406 19.9985 13.334 19.9985C12.2262 19.9985 11.2294 19.6118 10.5418 19.2603C10.2038 19.0833 9.80002 19.0909 9.45822 19.2603C8.77057 19.6118 7.77383 19.9985 6.66595 19.9985C6.25976 19.9985 5.85575 19.948 5.45855 19.8558C4.1224 19.5456 2.68974 19.62 1.36273 19.9673C0.765381 20.1235 0.168031 19.7056 0.0291122 19.0337C-0.109806 18.3619 0.261801 17.6901 0.859151 17.5338C1.48776 17.3698 2.11637 17.0144 2.61647 16.5495C3.00197 16.1824 3.56459 16.155 3.97788 16.4831C4.7454 17.0768 5.73172 17.4987 6.66595 17.4987C7.62102 17.4987 8.57608 17.0847 9.3575 16.4792C9.743 16.1707 10.257 16.1707 10.6425 16.4792Z" fill="black"/>
</svg>
