<svg width="20" height="20" viewBox="0 0 20 20" fill="none" xmlns="http://www.w3.org/2000/svg">
<path d="M14.5455 15C15.0909 13.7539 16.2216 12.6914 17.3409 11.6328C17.6364 11.3555 17.9318 11.0781 18.2159 10.7969C19.3409 9.68359 20 8.33594 20 6.87891C20 3.07813 15.5227 0 10 0C4.47727 0 0 3.07813 0 6.875C0 8.33203 0.659091 9.68359 1.78409 10.793C2.06818 11.0742 2.36364 11.3516 2.65909 11.6289C3.78409 12.6875 4.91477 13.7539 5.45455 14.9961H14.5455V15ZM10 20C12.5114 20 14.5455 18.6016 14.5455 16.875V16.25H5.45455V16.875C5.45455 18.6016 7.48864 20 10 20ZM5.45455 6.875C5.45455 7.21875 5.04545 7.5 4.54545 7.5C4.04545 7.5 3.63636 7.21875 3.63636 6.875C3.63636 4.45703 6.48295 2.5 10 2.5C10.5 2.5 10.9091 2.78125 10.9091 3.125C10.9091 3.46875 10.5 3.75 10 3.75C7.48864 3.75 5.45455 5.14844 5.45455 6.875Z" fill="black"/>
</svg>
