<svg width="20" height="20" viewBox="0 0 20 20" fill="none" xmlns="http://www.w3.org/2000/svg">
<path d="M5.46023 17.7475C5.46023 17.9935 5.56341 18.2335 5.76045 18.4385L6.73432 19.4421C7.03261 19.7498 7.70989 20 8.24795 20H11.7519C12.2882 20 12.9656 19.7499 13.2639 19.4421L14.2343 18.4389C14.4012 18.2656 14.5382 17.9557 14.5382 17.7475L14.5455 16.2161H5.45455L5.46023 17.7475ZM10 0C4.20568 0.0125127 0 3.24127 0 6.84038C0 8.57411 0.934091 10.1547 2.475 11.3642C3.4142 12.1002 4.88068 13.639 5.44205 14.9367C5.44382 14.9465 5.44738 14.9569 5.44915 14.9673H14.5514C14.5532 14.9569 14.5568 14.9471 14.5585 14.9367C15.1196 13.639 16.5864 12.1002 17.5256 11.3642C19.0682 10.1883 20 8.61005 20 6.84038C20 3.07837 15.5227 0.000152356 10 0ZM15.4773 10.161C14.5875 10.8583 13.4864 11.9697 12.6903 13.1256H7.31477C6.51875 11.9697 5.41761 10.8583 4.52841 10.1613C3.36591 9.25072 2.72727 8.05141 2.72727 6.84038C2.72727 4.42613 5.46023 1.88491 9.94886 1.87515C14.0114 1.87515 17.2727 4.11751 17.2727 6.84038C17.2727 8.05141 16.6364 9.25072 15.4773 10.161ZM9.09091 3.12524C6.58523 3.12524 4.54545 4.5277 4.54545 6.25049C4.54545 6.59598 4.95205 6.87554 5.45455 6.87554C5.95705 6.87554 6.36364 6.59427 6.36364 6.25049C6.36364 5.21642 7.58693 4.37534 9.09091 4.37534C9.59341 4.37534 10 4.0961 10 3.75068C10 3.40527 9.59091 3.12524 9.09091 3.12524Z" fill="black"/>
</svg>
