<svg width="20" height="20" viewBox="0 0 20 20" fill="none" xmlns="http://www.w3.org/2000/svg">
<path d="M0 2.85714C0 1.28125 1.12109 0 2.5 0H17.5C18.8789 0 20 1.28125 20 2.85714V17.1429C20 18.7188 18.8789 20 17.5 20H2.5C1.12109 20 0 18.7188 0 17.1429V2.85714ZM2.5 2.85714V5.71429H5V2.85714H2.5ZM17.5 2.85714H7.5V5.71429H17.5V2.85714ZM2.5 8.57143V11.4286H5V8.57143H2.5ZM17.5 8.57143H7.5V11.4286H17.5V8.57143ZM2.5 14.2857V17.1429H5V14.2857H2.5ZM17.5 14.2857H7.5V17.1429H17.5V14.2857Z" fill="black"/>
</svg>
