<svg width="20" height="20" viewBox="0 0 20 20" fill="none" xmlns="http://www.w3.org/2000/svg">
<path d="M6.25 2.85714C6.94141 2.85714 7.5 2.21875 7.5 1.42857C7.5 0.638393 6.94141 0 6.25 0H3.75C1.67969 0 0 1.91964 0 4.28571V15.7143C0 18.0804 1.67969 20 3.75 20H6.25C6.94141 20 7.5 19.3616 7.5 18.5714C7.5 17.7812 6.94141 17.1429 6.25 17.1429H3.75C3.05859 17.1429 2.5 16.5045 2.5 15.7143V4.28571C2.5 3.49554 3.05859 2.85714 3.75 2.85714H6.25ZM19.707 10.7768C19.8945 10.5759 20 10.2946 20 10C20 9.70536 19.8945 9.42411 19.707 9.22322L14.082 3.15179C13.8086 2.85714 13.4102 2.77679 13.0664 2.94643C12.7227 3.11607 12.5 3.50446 12.5 3.92857V7.14286H7.5C6.80859 7.14286 6.25 7.78125 6.25 8.57143V11.4286C6.25 12.2188 6.80859 12.8571 7.5 12.8571H12.5V16.0714C12.5 16.5 12.7227 16.8839 13.0664 17.0536C13.4102 17.2232 13.8086 17.1429 14.082 16.8482L19.707 10.7768Z" fill="black"/>
</svg>
