<svg width="20" height="20" viewBox="0 0 20 20" fill="none" xmlns="http://www.w3.org/2000/svg">
<path d="M16.2508 8.12381C16.2508 8.4094 16.236 8.69152 16.2072 8.96946C15.9534 11.4193 15.9715 14.2001 17.7125 15.9422L19.6338 17.8646C20.1221 18.3528 20.1221 19.1456 19.6338 19.6338C19.1455 20.1221 18.3525 20.1221 17.8642 19.6338L15.95 17.7185C14.2059 15.9734 11.417 15.955 8.96244 16.2052C8.68728 16.2333 8.40804 16.2476 8.1254 16.2476C3.6369 16.2476 0 12.6114 0 8.12381C0 3.63619 3.6369 0 8.1254 0C12.6139 0 16.2508 3.63619 16.2508 8.12381ZM8.1254 13.748C11.231 13.748 13.7507 11.2288 13.7507 8.12381C13.7507 5.0188 11.231 2.49963 8.1254 2.49963C5.01978 2.49963 2.50012 5.0188 2.50012 8.12381C2.50012 11.2288 5.01978 13.748 8.1254 13.748Z" fill="black"/>
</svg>
